<svg aria-hidden="true" style="position: absolute; width: 0; height: 0; overflow: hidden;" version="1.1" xmlns="http://www.w3.org/2000/svg" xmlns:xlink="http://www.w3.org/1999/xlink">
<defs>
<symbol id="control--btn"  viewBox="0 0 32 32">
<path stroke-width="var(--btn--border-width, 2)" stroke-miterlimit="4" stroke-linecap="butt" stroke-linejoin="miter" style="fill: var(--btn--background, #2a2a2a); stroke: var(--btn--border-color, #52F452)" d="M1.164 6.3l5.137-5.137h19.4l5.137 5.137v19.4l-5.137 5.137h-19.4l-5.137-5.137v-19.4z"></path>
</symbol>
<symbol id="control--btn"  viewBox="0 0 1 1">
<path stroke-width="var(--btn--border-width, 2)" stroke-miterlimit="4" stroke-linecap="butt" stroke-linejoin="miter" style="fill: var(--btn--background, #2a2a2a); stroke: var(--btn--border-color, #52F452)" d="M0.02 0.190102L0.190102 0.02H0.809898L0.98 0.190102V0.809898L0.809898 0.98H0.190102L0.02 0.809898V0.190102Z"></path>
</symbol>
<symbol id="icon-settings" viewBox="0 0 32 32">
<path fill="#fff" style="fill: var(--color1, #fff)" d="M14.487 3.241l0.148 0.269c0.504 0.915 1.001 1.089 1.243 1.089 0.24 0 0.733-0.171 1.23-1.084 0.288-0.529 0.951-0.725 1.48-0.437s0.725 0.951 0.437 1.48c-0.703 1.292-1.797 2.223-3.147 2.223-1.348 0-2.445-0.93-3.154-2.219l-0.146-0.266c-0.333-0.601-1.008-0.748-1.492-0.445l-2.323 1.4c-0.684 0.411-0.968 1.398-0.539 2.193 0.714 1.293 0.903 2.703 0.266 3.864-0.647 1.18-1.946 1.739-3.41 1.739-0.735 0-1.442 0.655-1.442 1.577v2.471c0 0.916 0.701 1.577 1.442 1.577 1.465 0 2.763 0.559 3.41 1.742 0.637 1.164 0.447 2.578-0.268 3.877-0.29 0.528-0.954 0.72-1.482 0.43s-0.72-0.954-0.43-1.482c0.498-0.905 0.422-1.492 0.265-1.778-0.146-0.267-0.548-0.607-1.496-0.607-2.059 0-3.624-1.754-3.624-3.759v-2.471c0-2.027 1.586-3.759 3.624-3.759 0.949 0 1.351-0.34 1.497-0.606 0.156-0.284 0.232-0.866-0.264-1.762l-0.005-0.008c-0.955-1.761-0.412-4.058 1.33-5.106l2.299-1.385c1.621-1.008 3.659-0.369 4.552 1.245zM25.031 6.999c-0.528-0.291-1.191-0.098-1.482 0.43-0.63 1.145-0.851 2.379-0.456 3.456 0.527 1.453 1.96 2.163 3.598 2.163 0.741 0 1.442 0.661 1.442 1.577v2.471c0 0.922-0.707 1.577-1.442 1.577-1.464 0-2.763 0.558-3.41 1.742-0.637 1.163-0.447 2.578 0.268 3.877 0.425 0.775 0.147 1.764-0.54 2.177l-2.323 1.4c-0.48 0.301-1.16 0.161-1.508-0.45l-0.143-0.261c-0.71-1.289-1.806-2.218-3.154-2.218-1.349 0-2.442 0.93-3.145 2.221l-0.142 0.259c-0.348 0.611-1.028 0.751-1.508 0.45l-1.465-0.892c-0.515-0.313-1.186-0.15-1.499 0.365s-0.15 1.186 0.365 1.499l1.448 0.881c1.624 1.012 3.658 0.367 4.563-1.235l0.155-0.282c0.497-0.913 0.99-1.084 1.23-1.084 0.242 0 0.739 0.174 1.243 1.089l0.146 0.266 0.006 0.011c0.904 1.601 2.937 2.246 4.56 1.236l2.299-1.386c1.738-1.047 2.288-3.344 1.327-5.096l-0.001-0.001c-0.498-0.905-0.422-1.492-0.265-1.778 0.146-0.267 0.548-0.607 1.496-0.607 2.038 0 3.624-1.732 3.624-3.759v-2.471c0-2.005-1.566-3.759-3.624-3.759-1.054 0-1.434-0.412-1.547-0.726l-0.002-0.006c-0.11-0.299-0.117-0.861 0.319-1.653 0.291-0.528 0.098-1.191-0.43-1.482zM10.788 15.858c0 2.88 2.223 5.304 5.091 5.304 0.695 0 1.388-0.143 2.022-0.44 0.546-0.255 0.781-0.905 0.526-1.45s-0.905-0.781-1.451-0.526c-0.325 0.152-0.699 0.234-1.098 0.234-1.558 0-2.909-1.339-2.909-3.122s1.351-3.122 2.909-3.122c1.558 0 2.909 1.339 2.909 3.122 0 0.602 0.488 1.091 1.091 1.091s1.091-0.488 1.091-1.091c0-2.88-2.223-5.304-5.091-5.304s-5.091 2.424-5.091 5.304z"></path>
<path fill="#82dbf7" style="fill: var(--color2, #82dbf7)" d="M22.391 6.402c1.264 0 2.289-1.025 2.289-2.288s-1.025-2.288-2.289-2.288c-1.264 0-2.288 1.025-2.288 2.288s1.025 2.288 2.288 2.288zM23.157 4.113c0 0.423-0.343 0.766-0.766 0.766s-0.766-0.343-0.766-0.766 0.343-0.766 0.766-0.766c0.423 0 0.766 0.343 0.766 0.766z"></path>
</symbol>
<symbol id="icon-menu" viewBox="0 0 32 32">
<path fill="#fff" style="fill: var(--color1, #fff)" d="M18.513 2.49c0.782-0.694 1.861-0.89 3.006-0.89 0.602 0 1.091 0.488 1.091 1.091s-0.488 1.091-1.091 1.091c-0.975 0-1.382 0.184-1.557 0.34-0.142 0.126-0.325 0.41-0.325 1.21v6.040c0 0.809 0.184 1.089 0.324 1.213 0.174 0.154 0.58 0.336 1.559 0.336h5.387c0.975 0 1.382-0.184 1.557-0.34 0.142-0.126 0.325-0.41 0.325-1.21v-6.040c0-0.8-0.183-1.083-0.325-1.21-0.175-0.156-0.582-0.34-1.557-0.34-0.602 0-1.091-0.488-1.091-1.091s0.488-1.091 1.091-1.091c1.145 0 2.225 0.196 3.006 0.89 0.814 0.724 1.058 1.76 1.058 2.841v6.040c0 1.080-0.244 2.117-1.058 2.841-0.782 0.694-1.861 0.89-3.006 0.89h-5.387c-1.141 0-2.222-0.191-3.005-0.884-0.817-0.723-1.060-1.762-1.060-2.847v-6.040c0-1.080 0.244-2.117 1.058-2.841z"></path>
<path fill="#fff" style="fill: var(--color1, #fff)" d="M18.466 17.945c0.782-0.782 1.884-1.011 3.053-1.011h5.387c1.169 0 2.271 0.229 3.053 1.011s1.011 1.884 1.011 3.053v5.387c0 1.169-0.229 2.271-1.011 3.053s-1.884 1.011-3.053 1.011h-5.387c-1.169 0-2.271-0.229-3.053-1.011s-1.011-1.884-1.011-3.053v-5.387c0-1.169 0.229-2.271 1.011-3.053zM20.009 19.487c-0.174 0.174-0.372 0.56-0.372 1.51v5.387c0 0.951 0.198 1.336 0.372 1.51s0.56 0.372 1.51 0.372h5.387c0.951 0 1.336-0.198 1.51-0.372s0.372-0.56 0.372-1.51v-5.387c0-0.951-0.198-1.336-0.372-1.51s-0.56-0.372-1.51-0.372h-5.387c-0.951 0-1.336 0.198-1.51 0.372z"></path>
<path fill="#fff" style="fill: var(--color1, #fff)" d="M2.513 2.49c0.781-0.694 1.861-0.89 3.006-0.89h5.387c1.145 0 2.225 0.196 3.006 0.89 0.814 0.724 1.058 1.76 1.058 2.841v6.053c0 1.080-0.243 2.118-1.060 2.84-0.783 0.693-1.863 0.884-3.008 0.877h-5.383c-1.141 0-2.222-0.191-3.005-0.884-0.817-0.723-1.060-1.762-1.060-2.847v-6.040c0-1.080 0.244-2.117 1.058-2.841zM3.962 4.121c-0.142 0.126-0.325 0.41-0.325 1.21v6.040c0 0.809 0.184 1.089 0.324 1.213 0.174 0.154 0.58 0.336 1.559 0.336h5.393c0.974 0.006 1.379-0.176 1.552-0.329 0.14-0.124 0.324-0.406 0.324-1.206v-6.053c0-0.8-0.183-1.083-0.325-1.21-0.175-0.156-0.582-0.34-1.557-0.34h-5.387c-0.975 0-1.382 0.184-1.557 0.34z"></path>
<path fill="#fff" style="fill: var(--color1, #fff)" d="M2.466 17.945c0.782-0.782 1.884-1.011 3.053-1.011h5.387c1.169 0 2.271 0.229 3.053 1.011s1.011 1.884 1.011 3.053v5.387c0 1.169-0.229 2.271-1.011 3.053s-1.884 1.011-3.053 1.011c-0.602 0-1.091-0.488-1.091-1.091s0.488-1.091 1.091-1.091c0.951 0 1.336-0.198 1.51-0.372s0.372-0.56 0.372-1.51v-5.387c0-0.951-0.198-1.336-0.372-1.51s-0.56-0.372-1.51-0.372h-5.387c-0.951 0-1.336 0.198-1.51 0.372s-0.372 0.56-0.372 1.51v5.387c0 0.951 0.198 1.336 0.372 1.51s0.56 0.372 1.51 0.372c0.603 0 1.091 0.488 1.091 1.091s-0.488 1.091-1.091 1.091c-1.169 0-2.271-0.229-3.053-1.011s-1.011-1.884-1.011-3.053v-5.387c0-1.169 0.229-2.271 1.011-3.053z"></path>
<path fill="#82dbf7" style="fill: var(--color2, #82dbf7)" d="M24.291 10.433c1.264 0 2.289-1.025 2.289-2.288s-1.025-2.288-2.289-2.288c-1.264 0-2.288 1.025-2.288 2.288s1.025 2.288 2.288 2.288zM25.057 8.144c0 0.423-0.343 0.766-0.766 0.766s-0.766-0.343-0.766-0.766c0-0.423 0.343-0.766 0.766-0.766s0.766 0.343 0.766 0.766z"></path>
</symbol>
</defs>
</svg>
 
