<svg aria-hidden="true" style="position: absolute; width: 0; height: 0; overflow: hidden;" version="1.1" xmlns="http://www.w3.org/2000/svg" xmlns:xlink="http://www.w3.org/1999/xlink">
<defs>
<symbol id="icon-menu" viewBox="0 0 32 32">
<path fill="#fff" style="fill: var(--color1, #fff)" d="M18.513 2.49c0.782-0.694 1.861-0.89 3.006-0.89 0.602 0 1.091 0.488 1.091 1.091s-0.488 1.091-1.091 1.091c-0.975 0-1.382 0.184-1.557 0.34-0.142 0.126-0.325 0.41-0.325 1.21v6.040c0 0.809 0.184 1.089 0.324 1.213 0.174 0.154 0.58 0.336 1.559 0.336h5.387c0.975 0 1.382-0.184 1.557-0.34 0.142-0.126 0.325-0.41 0.325-1.21v-6.040c0-0.8-0.183-1.083-0.325-1.21-0.175-0.156-0.582-0.34-1.557-0.34-0.602 0-1.091-0.488-1.091-1.091s0.488-1.091 1.091-1.091c1.145 0 2.225 0.196 3.006 0.89 0.814 0.724 1.058 1.76 1.058 2.841v6.040c0 1.080-0.244 2.117-1.058 2.841-0.782 0.694-1.861 0.89-3.006 0.89h-5.387c-1.141 0-2.222-0.191-3.005-0.884-0.817-0.723-1.060-1.762-1.060-2.847v-6.040c0-1.080 0.244-2.117 1.058-2.841z"></path>
<path fill="#fff" style="fill: var(--color1, #fff)" d="M18.466 17.945c0.782-0.782 1.884-1.011 3.053-1.011h5.387c1.169 0 2.271 0.229 3.053 1.011s1.011 1.884 1.011 3.053v5.387c0 1.169-0.229 2.271-1.011 3.053s-1.884 1.011-3.053 1.011h-5.387c-1.169 0-2.271-0.229-3.053-1.011s-1.011-1.884-1.011-3.053v-5.387c0-1.169 0.229-2.271 1.011-3.053zM20.009 19.487c-0.174 0.174-0.372 0.56-0.372 1.51v5.387c0 0.951 0.198 1.336 0.372 1.51s0.56 0.372 1.51 0.372h5.387c0.951 0 1.336-0.198 1.51-0.372s0.372-0.56 0.372-1.51v-5.387c0-0.951-0.198-1.336-0.372-1.51s-0.56-0.372-1.51-0.372h-5.387c-0.951 0-1.336 0.198-1.51 0.372z"></path>
<path fill="#fff" style="fill: var(--color1, #fff)" d="M2.513 2.49c0.781-0.694 1.861-0.89 3.006-0.89h5.387c1.145 0 2.225 0.196 3.006 0.89 0.814 0.724 1.058 1.76 1.058 2.841v6.053c0 1.080-0.243 2.118-1.060 2.84-0.783 0.693-1.863 0.884-3.008 0.877h-5.383c-1.141 0-2.222-0.191-3.005-0.884-0.817-0.723-1.060-1.762-1.060-2.847v-6.040c0-1.080 0.244-2.117 1.058-2.841zM3.962 4.121c-0.142 0.126-0.325 0.41-0.325 1.21v6.040c0 0.809 0.184 1.089 0.324 1.213 0.174 0.154 0.58 0.336 1.559 0.336h5.393c0.974 0.006 1.379-0.176 1.552-0.329 0.14-0.124 0.324-0.406 0.324-1.206v-6.053c0-0.8-0.183-1.083-0.325-1.21-0.175-0.156-0.582-0.34-1.557-0.34h-5.387c-0.975 0-1.382 0.184-1.557 0.34z"></path>
<path fill="#fff" style="fill: var(--color1, #fff)" d="M2.466 17.945c0.782-0.782 1.884-1.011 3.053-1.011h5.387c1.169 0 2.271 0.229 3.053 1.011s1.011 1.884 1.011 3.053v5.387c0 1.169-0.229 2.271-1.011 3.053s-1.884 1.011-3.053 1.011c-0.602 0-1.091-0.488-1.091-1.091s0.488-1.091 1.091-1.091c0.951 0 1.336-0.198 1.51-0.372s0.372-0.56 0.372-1.51v-5.387c0-0.951-0.198-1.336-0.372-1.51s-0.56-0.372-1.51-0.372h-5.387c-0.951 0-1.336 0.198-1.51 0.372s-0.372 0.56-0.372 1.51v5.387c0 0.951 0.198 1.336 0.372 1.51s0.56 0.372 1.51 0.372c0.603 0 1.091 0.488 1.091 1.091s-0.488 1.091-1.091 1.091c-1.169 0-2.271-0.229-3.053-1.011s-1.011-1.884-1.011-3.053v-5.387c0-1.169 0.229-2.271 1.011-3.053z"></path>
<path fill="#82dbf7" style="fill: var(--color2, #82dbf7)" d="M24.291 10.433c1.264 0 2.289-1.025 2.289-2.288s-1.025-2.288-2.289-2.288c-1.264 0-2.288 1.025-2.288 2.288s1.025 2.288 2.288 2.288zM25.057 8.144c0 0.423-0.343 0.766-0.766 0.766s-0.766-0.343-0.766-0.766c0-0.423 0.343-0.766 0.766-0.766s0.766 0.343 0.766 0.766z"></path>
</symbol>
</defs>
</svg>
